<svg width="325" height="88" viewBox="0 0 325 88" fill="none" xmlns="http://www.w3.org/2000/svg">
<path d="M42.2206 70.7604C41.4719 73.077 40.12 74.0029 37.7951 74.0029C35.4702 74.0029 34.1044 73.047 33.3557 70.7303C32.607 68.4137 30.7403 60.0899 27.7149 54.8269C24.6896 49.564 18.4227 43.8512 16.7908 42.0444C15.1589 40.2377 15.033 38.604 16.1954 36.5906C17.3578 34.5772 18.8921 33.8718 21.2728 34.3817C23.6534 34.8916 31.7298 37.4266 37.8003 37.438C43.8709 37.4494 52.0173 34.889 54.3979 34.3791C56.7785 33.8691 58.2563 34.5771 59.4187 36.5904C60.5812 38.6036 60.4128 40.2652 58.7808 42.0719C57.1489 43.8786 50.9061 49.5995 47.861 54.851C44.8158 60.1026 42.9693 68.4438 42.2206 70.7604Z" stroke="white" stroke-width="1.5"/>
<path d="M58.7877 56.0718C60.4196 57.8785 60.5455 59.5122 59.3831 61.5256C58.2206 63.539 56.7098 64.2439 54.3292 63.734C51.9485 63.224 43.8066 60.6787 37.7361 60.6673C31.6655 60.6558 23.5847 63.2267 21.204 63.7366C18.8234 64.2465 17.3456 63.5387 16.1832 61.5253C15.0207 59.512 15.177 57.8305 16.8089 56.0238C18.4408 54.217 24.6743 48.4901 27.7195 43.2386C30.7647 37.9871 32.6205 29.6519 33.3692 27.3352C34.1179 25.0186 35.4699 24.0928 37.7946 24.0927C40.1193 24.0926 41.4741 25.0692 42.2228 27.3859C42.9715 29.7025 44.8046 37.9694 47.8299 43.2324C50.8553 48.4953 57.1557 54.2651 58.7877 56.0718Z" stroke="white" stroke-width="1.5"/>
<path d="M71.6408 48.0503C73.8446 48.5467 74.3829 48.4712 74.3829 49.0182C74.3829 49.5651 73.8446 49.5254 71.6407 50.0217C69.4369 50.5181 64.7642 51.4451 59.1245 53.1245C53.0105 54.9452 46.3396 57.4918 43.6079 59.0759C40.8761 60.6599 35.3301 65.1529 30.6964 69.5375C26.4222 73.5819 23.283 77.1651 21.7512 78.8255C20.2194 80.4859 19.9846 80.972 19.5109 80.6985C19.0373 80.4251 19.3409 79.9965 20.013 77.8398C20.685 75.683 22.2186 71.1727 23.584 65.449C25.0643 59.2438 26.1942 52.1933 26.1883 49.0355C26.1824 45.8777 25.0643 38.8282 23.584 32.623C22.2186 26.8992 20.685 22.389 20.013 20.2322C19.3409 18.0755 19.0374 17.6288 19.511 17.3555C19.9846 17.0822 20.2194 17.5862 21.7512 19.2466C23.283 20.907 26.4222 24.4902 30.6964 28.5345C35.3301 32.9191 40.871 37.4229 43.6087 38.9967C46.3464 40.5704 53.0105 43.1269 59.1246 44.9475C64.7642 46.6269 69.4369 47.554 71.6408 48.0503Z" stroke="white" stroke-width="1.5"/>
<path d="M53.866 19.1921C55.3978 17.5317 55.6016 17.0278 56.0752 17.3012C56.5489 17.5747 56.2453 18.0211 55.5732 20.1778C54.9012 22.3346 53.3677 26.8448 52.0022 32.5686C50.522 38.7738 49.392 45.8243 49.3979 48.9821C49.4039 52.1399 50.522 59.1894 52.0023 65.3946C53.3677 71.1183 54.9012 75.6286 55.5733 77.7854C56.2454 79.9421 56.5489 80.3885 56.0753 80.662C55.6016 80.9354 55.3823 80.4582 53.8505 78.7978C52.3187 77.1374 49.1795 73.5542 44.9053 69.5099C40.2715 65.1253 34.7306 60.6214 31.9929 59.0477C29.2552 57.4739 22.5911 54.9175 16.4771 53.0968C10.8375 51.4175 6.16476 50.4904 3.96091 49.9941C1.75705 49.4977 1.21851 49.5372 1.21859 48.9904C1.21867 48.4436 1.77256 48.4923 3.97642 47.9959C6.18027 47.4995 10.853 46.5725 16.4926 44.8931C22.6067 43.0724 29.2775 40.5258 32.0093 38.9418C34.741 37.3577 40.287 32.8647 44.9208 28.4801C49.195 24.4357 52.3342 20.8525 53.866 19.1921Z" stroke="white" stroke-width="1.5"/>
<circle cx="37.7946" cy="48.9993" r="3.19891" fill="white" stroke="white" stroke-width="1.5"/>
<circle cx="37.627" cy="48.9996" r="28.4629" stroke="white" stroke-width="1.5"/>
<path d="M114.674 35.334C114.674 36.094 114.714 36.714 114.794 37.194C114.874 37.654 115.024 38.014 115.244 38.274C115.484 38.514 115.814 38.684 116.234 38.784C116.674 38.884 117.244 38.944 117.944 38.964V40.104H108.224V38.964C108.924 38.944 109.484 38.884 109.904 38.784C110.344 38.684 110.684 38.514 110.924 38.274C111.164 38.034 111.324 37.694 111.404 37.254C111.484 36.814 111.524 36.244 111.524 35.544V29.034H99.3742V35.334C99.3742 36.094 99.4142 36.714 99.4942 37.194C99.5742 37.654 99.7242 38.014 99.9442 38.274C100.184 38.514 100.514 38.684 100.934 38.784C101.374 38.884 101.944 38.944 102.644 38.964V40.104H92.9242V38.964C93.6242 38.944 94.1842 38.884 94.6042 38.784C95.0442 38.684 95.3842 38.514 95.6242 38.274C95.8642 38.034 96.0242 37.694 96.1042 37.254C96.1842 36.814 96.2242 36.244 96.2242 35.544V21.564C96.2242 20.864 96.1842 20.304 96.1042 19.884C96.0442 19.444 95.9042 19.104 95.6842 18.864C95.4842 18.604 95.1842 18.434 94.7842 18.354C94.3842 18.254 93.8642 18.184 93.2242 18.144V17.004H102.344V18.144C101.704 18.164 101.184 18.224 100.784 18.324C100.404 18.424 100.104 18.604 99.8842 18.864C99.6842 19.124 99.5442 19.484 99.4642 19.944C99.4042 20.404 99.3742 21.014 99.3742 21.774V27.534H111.524V21.564C111.524 20.864 111.484 20.304 111.404 19.884C111.344 19.444 111.204 19.104 110.984 18.864C110.784 18.604 110.484 18.434 110.084 18.354C109.684 18.254 109.164 18.184 108.524 18.144V17.004H117.644V18.144C117.004 18.164 116.484 18.224 116.084 18.324C115.704 18.424 115.404 18.604 115.184 18.864C114.984 19.124 114.844 19.484 114.764 19.944C114.704 20.404 114.674 21.014 114.674 21.774V35.334ZM134.858 31.734H126.848C126.508 32.554 126.218 33.284 125.978 33.924C125.738 34.544 125.538 35.084 125.378 35.544C125.238 36.004 125.138 36.394 125.078 36.714C125.018 37.034 124.988 37.294 124.988 37.494C124.988 38.054 125.168 38.444 125.528 38.664C125.888 38.864 126.488 38.964 127.328 38.964V40.104H120.038V38.964C120.498 38.904 120.888 38.824 121.208 38.724C121.548 38.624 121.838 38.484 122.078 38.304C122.338 38.124 122.558 37.894 122.738 37.614C122.938 37.314 123.128 36.954 123.308 36.534L131.108 17.004H132.398L139.208 33.924C139.668 35.044 140.068 35.944 140.408 36.624C140.748 37.284 141.078 37.784 141.398 38.124C141.718 38.464 142.058 38.684 142.418 38.784C142.798 38.884 143.248 38.934 143.768 38.934V40.104H133.988V38.934C135.048 38.934 135.778 38.834 136.178 38.634C136.578 38.434 136.778 38.104 136.778 37.644C136.778 37.444 136.768 37.264 136.748 37.104C136.728 36.924 136.688 36.734 136.628 36.534C136.588 36.334 136.518 36.114 136.418 35.874C136.338 35.614 136.228 35.314 136.088 34.974L134.858 31.734ZM127.448 30.234H134.288L130.958 21.384L127.448 30.234ZM165.112 40.404L150.862 21.624H150.742V34.434C150.742 35.434 150.772 36.224 150.832 36.804C150.912 37.384 151.052 37.834 151.252 38.154C151.472 38.474 151.772 38.684 152.152 38.784C152.552 38.884 153.072 38.944 153.712 38.964V40.104H145.642V38.964C146.342 38.944 146.902 38.884 147.322 38.784C147.762 38.664 148.102 38.454 148.342 38.154C148.582 37.854 148.742 37.434 148.822 36.894C148.902 36.334 148.942 35.584 148.942 34.644V22.464C148.942 21.624 148.902 20.934 148.822 20.394C148.762 19.834 148.622 19.394 148.402 19.074C148.202 18.754 147.902 18.534 147.502 18.414C147.102 18.274 146.582 18.184 145.942 18.144V17.004H151.882L164.992 34.494H165.112V22.674C165.112 21.694 165.072 20.914 164.992 20.334C164.932 19.734 164.792 19.274 164.572 18.954C164.372 18.634 164.072 18.424 163.672 18.324C163.292 18.224 162.782 18.164 162.142 18.144V17.004H170.212V18.144C169.512 18.164 168.942 18.234 168.502 18.354C168.082 18.454 167.752 18.654 167.512 18.954C167.272 19.254 167.112 19.684 167.032 20.244C166.952 20.804 166.912 21.544 166.912 22.464V40.404H165.112ZM193.082 40.404L178.832 21.624H178.712V34.434C178.712 35.434 178.742 36.224 178.802 36.804C178.882 37.384 179.022 37.834 179.222 38.154C179.442 38.474 179.742 38.684 180.122 38.784C180.522 38.884 181.042 38.944 181.682 38.964V40.104H173.612V38.964C174.312 38.944 174.872 38.884 175.292 38.784C175.732 38.664 176.072 38.454 176.312 38.154C176.552 37.854 176.712 37.434 176.792 36.894C176.872 36.334 176.912 35.584 176.912 34.644V22.464C176.912 21.624 176.872 20.934 176.792 20.394C176.732 19.834 176.592 19.394 176.372 19.074C176.172 18.754 175.872 18.534 175.472 18.414C175.072 18.274 174.552 18.184 173.912 18.144V17.004H179.852L192.962 34.494H193.082V22.674C193.082 21.694 193.042 20.914 192.962 20.334C192.902 19.734 192.762 19.274 192.542 18.954C192.342 18.634 192.042 18.424 191.642 18.324C191.262 18.224 190.752 18.164 190.112 18.144V17.004H198.182V18.144C197.482 18.164 196.912 18.234 196.472 18.354C196.052 18.454 195.722 18.654 195.482 18.954C195.242 19.254 195.082 19.684 195.002 20.244C194.922 20.804 194.882 21.544 194.882 22.464V40.404H193.082ZM214.521 31.734H206.511C206.171 32.554 205.881 33.284 205.641 33.924C205.401 34.544 205.201 35.084 205.041 35.544C204.901 36.004 204.801 36.394 204.741 36.714C204.681 37.034 204.651 37.294 204.651 37.494C204.651 38.054 204.831 38.444 205.191 38.664C205.551 38.864 206.151 38.964 206.991 38.964V40.104H199.701V38.964C200.161 38.904 200.551 38.824 200.871 38.724C201.211 38.624 201.501 38.484 201.741 38.304C202.001 38.124 202.221 37.894 202.401 37.614C202.601 37.314 202.791 36.954 202.971 36.534L210.771 17.004H212.061L218.871 33.924C219.331 35.044 219.731 35.944 220.071 36.624C220.411 37.284 220.741 37.784 221.061 38.124C221.381 38.464 221.721 38.684 222.081 38.784C222.461 38.884 222.911 38.934 223.431 38.934V40.104H213.651V38.934C214.711 38.934 215.441 38.834 215.841 38.634C216.241 38.434 216.441 38.104 216.441 37.644C216.441 37.444 216.431 37.264 216.411 37.104C216.391 36.924 216.351 36.734 216.291 36.534C216.251 36.334 216.181 36.114 216.081 35.874C216.001 35.614 215.891 35.314 215.751 34.974L214.521 31.734ZM207.111 30.234H213.951L210.621 21.384L207.111 30.234Z" fill="white"/>
<path d="M92.7142 81.5649V80.4249C93.4742 80.4049 94.0842 80.3549 94.5442 80.2749C95.0242 80.1749 95.3942 80.0049 95.6542 79.7649C95.9142 79.5049 96.0842 79.1649 96.1642 78.7449C96.2642 78.3049 96.3142 77.7249 96.3142 77.0049V63.0249C96.3142 62.3249 96.2742 61.7649 96.1942 61.3449C96.1342 60.9049 95.9942 60.5649 95.7742 60.3249C95.5742 60.0649 95.2742 59.8949 94.8742 59.8149C94.4742 59.7149 93.9542 59.6449 93.3142 59.6049V58.4649H103.844C105.644 58.4649 107.304 58.7649 108.824 59.3649C110.364 59.9649 111.684 60.7949 112.784 61.8549C113.904 62.9149 114.774 64.1749 115.394 65.6349C116.014 67.0949 116.324 68.6849 116.324 70.4049C116.324 72.0449 116.034 73.5549 115.454 74.9349C114.874 76.2949 114.054 77.4649 112.994 78.4449C111.954 79.4249 110.704 80.1949 109.244 80.7549C107.784 81.2949 106.184 81.5649 104.444 81.5649H92.7142ZM99.9742 59.9349C99.6342 59.9349 99.4642 60.1049 99.4642 60.4449V76.6749C99.4642 78.9549 100.954 80.0949 103.934 80.0949C106.674 80.0949 108.774 79.2849 110.234 77.6649C111.694 76.0249 112.424 73.6249 112.424 70.4649C112.424 68.8049 112.224 67.3249 111.824 66.0249C111.424 64.7249 110.844 63.6249 110.084 62.7249C109.344 61.8249 108.444 61.1349 107.384 60.6549C106.324 60.1749 105.124 59.9349 103.784 59.9349H99.9742ZM126.407 68.8749C127.487 68.8749 128.387 68.8149 129.107 68.6949C129.847 68.5549 130.427 68.3449 130.847 68.0649C131.287 67.7849 131.597 67.4249 131.777 66.9849C131.977 66.5449 132.077 66.0249 132.077 65.4249H133.127V73.6149H132.077C132.077 73.0149 131.987 72.4949 131.807 72.0549C131.647 71.6149 131.347 71.2549 130.907 70.9749C130.487 70.6749 129.907 70.4549 129.167 70.3149C128.447 70.1549 127.527 70.0749 126.407 70.0749V76.8549C126.407 77.5149 126.487 78.0649 126.647 78.5049C126.807 78.9249 127.077 79.2749 127.457 79.5549C127.857 79.8149 128.377 80.0049 129.017 80.1249C129.657 80.2249 130.447 80.2749 131.387 80.2749C132.447 80.2749 133.347 80.2049 134.087 80.0649C134.827 79.9049 135.447 79.6449 135.947 79.2849C136.447 78.9249 136.847 78.4549 137.147 77.8749C137.447 77.2749 137.697 76.5349 137.897 75.6549H139.037L138.587 81.5649H119.957V80.4249C120.657 80.4049 121.217 80.3449 121.637 80.2449C122.077 80.1449 122.417 79.9749 122.657 79.7349C122.897 79.4949 123.057 79.1549 123.137 78.7149C123.217 78.2749 123.257 77.7049 123.257 77.0049V63.0249C123.257 62.3249 123.217 61.7649 123.137 61.3449C123.077 60.9049 122.937 60.5649 122.717 60.3249C122.517 60.0649 122.217 59.8949 121.817 59.8149C121.417 59.7149 120.897 59.6449 120.257 59.6049V58.4649H137.597L137.867 63.7449H136.817C136.697 62.9449 136.497 62.2949 136.217 61.7949C135.957 61.2749 135.587 60.8649 135.107 60.5649C134.647 60.2649 134.057 60.0549 133.337 59.9349C132.617 59.8149 131.747 59.7549 130.727 59.7549H126.917C126.577 59.7549 126.407 59.9249 126.407 60.2649V68.8749ZM143.015 74.5149H144.125C144.265 75.4149 144.525 76.2249 144.905 76.9449C145.305 77.6649 145.795 78.2749 146.375 78.7749C146.975 79.2749 147.655 79.6649 148.415 79.9449C149.195 80.2049 150.035 80.3349 150.935 80.3349C152.415 80.3349 153.585 79.9849 154.445 79.2849C155.305 78.5849 155.735 77.6349 155.735 76.4349C155.735 75.9349 155.645 75.4749 155.465 75.0549C155.305 74.6349 155.025 74.2349 154.625 73.8549C154.225 73.4549 153.685 73.0649 153.005 72.6849C152.345 72.3049 151.505 71.8949 150.485 71.4549C149.245 70.9149 148.205 70.3949 147.365 69.8949C146.525 69.3949 145.855 68.8749 145.355 68.3349C144.855 67.7949 144.495 67.2249 144.275 66.6249C144.075 66.0049 143.975 65.3049 143.975 64.5249C143.975 63.6049 144.135 62.7549 144.455 61.9749C144.795 61.1949 145.265 60.5249 145.865 59.9649C146.465 59.3849 147.175 58.9449 147.995 58.6449C148.815 58.3249 149.715 58.1649 150.695 58.1649C151.575 58.1649 152.395 58.3049 153.155 58.5849C153.915 58.8649 154.685 59.3149 155.465 59.9349L156.245 58.5849H156.935L157.265 64.5549H156.155C155.675 62.9149 154.975 61.6949 154.055 60.8949C153.155 60.0949 152.065 59.6949 150.785 59.6949C149.565 59.6949 148.595 59.9949 147.875 60.5949C147.155 61.1949 146.795 62.0049 146.795 63.0249C146.795 63.5049 146.875 63.9449 147.035 64.3449C147.195 64.7249 147.455 65.0949 147.815 65.4549C148.175 65.7949 148.645 66.1449 149.225 66.5049C149.805 66.8449 150.525 67.2049 151.385 67.5849C152.865 68.2449 154.095 68.8649 155.075 69.4449C156.055 70.0049 156.835 70.5749 157.415 71.1549C157.995 71.7149 158.405 72.3149 158.645 72.9549C158.885 73.5749 159.005 74.2749 159.005 75.0549C159.005 76.0549 158.805 76.9749 158.405 77.8149C158.005 78.6549 157.445 79.3749 156.725 79.9749C156.005 80.5749 155.145 81.0449 154.145 81.3849C153.145 81.7049 152.045 81.8649 150.845 81.8649C149.705 81.8649 148.675 81.7049 147.755 81.3849C146.855 81.0649 145.935 80.5249 144.995 79.7649L144.155 81.2349H143.465L143.015 74.5149ZM182.241 81.5649H162.861V80.4249C163.561 80.4049 164.121 80.3449 164.541 80.2449C164.981 80.1449 165.321 79.9749 165.561 79.7349C165.801 79.4949 165.961 79.1549 166.041 78.7149C166.121 78.2749 166.161 77.7049 166.161 77.0049V63.0249C166.161 62.3249 166.121 61.7649 166.041 61.3449C165.981 60.9049 165.841 60.5649 165.621 60.3249C165.421 60.0649 165.121 59.8949 164.721 59.8149C164.321 59.7149 163.801 59.6449 163.161 59.6049V58.4649H172.281V59.6049C171.641 59.6249 171.121 59.6849 170.721 59.7849C170.341 59.8849 170.041 60.0649 169.821 60.3249C169.621 60.5849 169.481 60.9449 169.401 61.4049C169.341 61.8649 169.311 62.4749 169.311 63.2349V76.1649C169.311 77.0049 169.391 77.6949 169.551 78.2349C169.731 78.7549 170.021 79.1649 170.421 79.4649C170.841 79.7449 171.391 79.9449 172.071 80.0649C172.751 80.1649 173.611 80.2149 174.651 80.2149C175.791 80.2149 176.751 80.1549 177.531 80.0349C178.311 79.8949 178.961 79.6649 179.481 79.3449C180.021 79.0049 180.441 78.5449 180.741 77.9649C181.061 77.3649 181.331 76.5949 181.551 75.6549H182.691L182.241 81.5649ZM198.847 73.1949H190.837C190.497 74.0149 190.207 74.7449 189.967 75.3849C189.727 76.0049 189.527 76.5449 189.367 77.0049C189.227 77.4649 189.127 77.8549 189.067 78.1749C189.007 78.4949 188.977 78.7549 188.977 78.9549C188.977 79.5149 189.157 79.9049 189.517 80.1249C189.877 80.3249 190.477 80.4249 191.317 80.4249V81.5649H184.027V80.4249C184.487 80.3649 184.877 80.2849 185.197 80.1849C185.537 80.0849 185.827 79.9449 186.067 79.7649C186.327 79.5849 186.547 79.3549 186.727 79.0749C186.927 78.7749 187.117 78.4149 187.297 77.9949L195.097 58.4649H196.387L203.197 75.3849C203.657 76.5049 204.057 77.4049 204.397 78.0849C204.737 78.7449 205.067 79.2449 205.387 79.5849C205.707 79.9249 206.047 80.1449 206.407 80.2449C206.787 80.3449 207.237 80.3949 207.757 80.3949V81.5649H197.977V80.3949C199.037 80.3949 199.767 80.2949 200.167 80.0949C200.567 79.8949 200.767 79.5649 200.767 79.1049C200.767 78.9049 200.757 78.7249 200.737 78.5649C200.717 78.3849 200.677 78.1949 200.617 77.9949C200.577 77.7949 200.507 77.5749 200.407 77.3349C200.327 77.0749 200.217 76.7749 200.077 76.4349L198.847 73.1949ZM191.437 71.6949H198.277L194.947 62.8449L191.437 71.6949ZM229.101 81.8649L214.851 63.0849H214.731V75.8949C214.731 76.8949 214.761 77.6849 214.821 78.2649C214.901 78.8449 215.041 79.2949 215.241 79.6149C215.461 79.9349 215.761 80.1449 216.141 80.2449C216.541 80.3449 217.061 80.4049 217.701 80.4249V81.5649H209.631V80.4249C210.331 80.4049 210.891 80.3449 211.311 80.2449C211.751 80.1249 212.091 79.9149 212.331 79.6149C212.571 79.3149 212.731 78.8949 212.811 78.3549C212.891 77.7949 212.931 77.0449 212.931 76.1049V63.9249C212.931 63.0849 212.891 62.3949 212.811 61.8549C212.751 61.2949 212.611 60.8549 212.391 60.5349C212.191 60.2149 211.891 59.9949 211.491 59.8749C211.091 59.7349 210.571 59.6449 209.931 59.6049V58.4649H215.871L228.981 75.9549H229.101V64.1349C229.101 63.1549 229.061 62.3749 228.981 61.7949C228.921 61.1949 228.781 60.7349 228.561 60.4149C228.361 60.0949 228.061 59.8849 227.661 59.7849C227.281 59.6849 226.771 59.6249 226.131 59.6049V58.4649H234.201V59.6049C233.501 59.6249 232.931 59.6949 232.491 59.8149C232.071 59.9149 231.741 60.1149 231.501 60.4149C231.261 60.7149 231.101 61.1449 231.021 61.7049C230.941 62.2649 230.901 63.0049 230.901 63.9249V81.8649H229.101ZM237.392 81.5649V80.4249C238.152 80.4049 238.762 80.3549 239.222 80.2749C239.702 80.1749 240.072 80.0049 240.332 79.7649C240.592 79.5049 240.762 79.1649 240.842 78.7449C240.942 78.3049 240.992 77.7249 240.992 77.0049V63.0249C240.992 62.3249 240.952 61.7649 240.872 61.3449C240.812 60.9049 240.672 60.5649 240.452 60.3249C240.252 60.0649 239.952 59.8949 239.552 59.8149C239.152 59.7149 238.632 59.6449 237.992 59.6049V58.4649H248.522C250.322 58.4649 251.982 58.7649 253.502 59.3649C255.042 59.9649 256.362 60.7949 257.462 61.8549C258.582 62.9149 259.452 64.1749 260.072 65.6349C260.692 67.0949 261.002 68.6849 261.002 70.4049C261.002 72.0449 260.712 73.5549 260.132 74.9349C259.552 76.2949 258.732 77.4649 257.672 78.4449C256.632 79.4249 255.382 80.1949 253.922 80.7549C252.462 81.2949 250.862 81.5649 249.122 81.5649H237.392ZM244.652 59.9349C244.312 59.9349 244.142 60.1049 244.142 60.4449V76.6749C244.142 78.9549 245.632 80.0949 248.612 80.0949C251.352 80.0949 253.452 79.2849 254.912 77.6649C256.372 76.0249 257.102 73.6249 257.102 70.4649C257.102 68.8049 256.902 67.3249 256.502 66.0249C256.102 64.7249 255.522 63.6249 254.762 62.7249C254.022 61.8249 253.122 61.1349 252.062 60.6549C251.002 60.1749 249.802 59.9349 248.462 59.9349H244.652ZM271.084 68.8749C272.164 68.8749 273.064 68.8149 273.784 68.6949C274.524 68.5549 275.104 68.3449 275.524 68.0649C275.964 67.7849 276.274 67.4249 276.454 66.9849C276.654 66.5449 276.754 66.0249 276.754 65.4249H277.804V73.6149H276.754C276.754 73.0149 276.664 72.4949 276.484 72.0549C276.324 71.6149 276.024 71.2549 275.584 70.9749C275.164 70.6749 274.584 70.4549 273.844 70.3149C273.124 70.1549 272.204 70.0749 271.084 70.0749V76.8549C271.084 77.5149 271.164 78.0649 271.324 78.5049C271.484 78.9249 271.754 79.2749 272.134 79.5549C272.534 79.8149 273.054 80.0049 273.694 80.1249C274.334 80.2249 275.124 80.2749 276.064 80.2749C277.124 80.2749 278.024 80.2049 278.764 80.0649C279.504 79.9049 280.124 79.6449 280.624 79.2849C281.124 78.9249 281.524 78.4549 281.824 77.8749C282.124 77.2749 282.374 76.5349 282.574 75.6549H283.714L283.264 81.5649H264.634V80.4249C265.334 80.4049 265.894 80.3449 266.314 80.2449C266.754 80.1449 267.094 79.9749 267.334 79.7349C267.574 79.4949 267.734 79.1549 267.814 78.7149C267.894 78.2749 267.934 77.7049 267.934 77.0049V63.0249C267.934 62.3249 267.894 61.7649 267.814 61.3449C267.754 60.9049 267.614 60.5649 267.394 60.3249C267.194 60.0649 266.894 59.8949 266.494 59.8149C266.094 59.7149 265.574 59.6449 264.934 59.6049V58.4649H282.274L282.544 63.7449H281.494C281.374 62.9449 281.174 62.2949 280.894 61.7949C280.634 61.2749 280.264 60.8649 279.784 60.5649C279.324 60.2649 278.734 60.0549 278.014 59.9349C277.294 59.8149 276.424 59.7549 275.404 59.7549H271.594C271.254 59.7549 271.084 59.9249 271.084 60.2649V68.8749ZM287.692 74.5149H288.802C288.942 75.4149 289.202 76.2249 289.582 76.9449C289.982 77.6649 290.472 78.2749 291.052 78.7749C291.652 79.2749 292.332 79.6649 293.092 79.9449C293.872 80.2049 294.712 80.3349 295.612 80.3349C297.092 80.3349 298.262 79.9849 299.122 79.2849C299.982 78.5849 300.412 77.6349 300.412 76.4349C300.412 75.9349 300.322 75.4749 300.142 75.0549C299.982 74.6349 299.702 74.2349 299.302 73.8549C298.902 73.4549 298.362 73.0649 297.682 72.6849C297.022 72.3049 296.182 71.8949 295.162 71.4549C293.922 70.9149 292.882 70.3949 292.042 69.8949C291.202 69.3949 290.532 68.8749 290.032 68.3349C289.532 67.7949 289.172 67.2249 288.952 66.6249C288.752 66.0049 288.652 65.3049 288.652 64.5249C288.652 63.6049 288.812 62.7549 289.132 61.9749C289.472 61.1949 289.942 60.5249 290.542 59.9649C291.142 59.3849 291.852 58.9449 292.672 58.6449C293.492 58.3249 294.392 58.1649 295.372 58.1649C296.252 58.1649 297.072 58.3049 297.832 58.5849C298.592 58.8649 299.362 59.3149 300.142 59.9349L300.922 58.5849H301.612L301.942 64.5549H300.832C300.352 62.9149 299.652 61.6949 298.732 60.8949C297.832 60.0949 296.742 59.6949 295.462 59.6949C294.242 59.6949 293.272 59.9949 292.552 60.5949C291.832 61.1949 291.472 62.0049 291.472 63.0249C291.472 63.5049 291.552 63.9449 291.712 64.3449C291.872 64.7249 292.132 65.0949 292.492 65.4549C292.852 65.7949 293.322 66.1449 293.902 66.5049C294.482 66.8449 295.202 67.2049 296.062 67.5849C297.542 68.2449 298.772 68.8649 299.752 69.4449C300.732 70.0049 301.512 70.5749 302.092 71.1549C302.672 71.7149 303.082 72.3149 303.322 72.9549C303.562 73.5749 303.682 74.2749 303.682 75.0549C303.682 76.0549 303.482 76.9749 303.082 77.8149C302.682 78.6549 302.122 79.3749 301.402 79.9749C300.682 80.5749 299.822 81.0449 298.822 81.3849C297.822 81.7049 296.722 81.8649 295.522 81.8649C294.382 81.8649 293.352 81.7049 292.432 81.3849C291.532 81.0649 290.612 80.5249 289.672 79.7649L288.832 81.2349H288.142L287.692 74.5149Z" fill="white"/>
<path d="M42.2206 70.7604C41.4719 73.077 40.12 74.0029 37.7951 74.0029C35.4702 74.0029 34.1044 73.047 33.3557 70.7303C32.607 68.4137 30.7403 60.0899 27.7149 54.8269C24.6896 49.564 18.4227 43.8512 16.7908 42.0444C15.1589 40.2377 15.033 38.604 16.1954 36.5906C17.3578 34.5772 18.8921 33.8718 21.2728 34.3817C23.6534 34.8916 31.7298 37.4266 37.8003 37.438C43.8709 37.4494 52.0173 34.889 54.3979 34.3791C56.7785 33.8691 58.2563 34.5771 59.4187 36.5904C60.5812 38.6036 60.4128 40.2652 58.7808 42.0719C57.1489 43.8786 50.9061 49.5995 47.861 54.851C44.8158 60.1026 42.9693 68.4438 42.2206 70.7604Z" stroke="white" stroke-width="1.5"/>
<path d="M58.7877 56.0718C60.4196 57.8785 60.5455 59.5122 59.3831 61.5256C58.2206 63.539 56.7098 64.2439 54.3292 63.734C51.9485 63.224 43.8066 60.6787 37.7361 60.6673C31.6655 60.6558 23.5847 63.2267 21.204 63.7366C18.8234 64.2465 17.3456 63.5387 16.1832 61.5253C15.0207 59.512 15.177 57.8305 16.8089 56.0238C18.4408 54.217 24.6743 48.4901 27.7195 43.2386C30.7647 37.9871 32.6205 29.6519 33.3692 27.3352C34.1179 25.0186 35.4699 24.0928 37.7946 24.0927C40.1193 24.0926 41.4741 25.0692 42.2228 27.3859C42.9715 29.7025 44.8046 37.9694 47.8299 43.2324C50.8553 48.4953 57.1557 54.2651 58.7877 56.0718Z" stroke="white" stroke-width="1.5"/>
<path d="M71.6408 48.0503C73.8446 48.5467 74.3829 48.4712 74.3829 49.0182C74.3829 49.5651 73.8446 49.5254 71.6407 50.0217C69.4369 50.5181 64.7642 51.4451 59.1245 53.1245C53.0105 54.9452 46.3396 57.4918 43.6079 59.0759C40.8761 60.6599 35.3301 65.1529 30.6964 69.5375C26.4222 73.5819 23.283 77.1651 21.7512 78.8255C20.2194 80.4859 19.9846 80.972 19.5109 80.6985C19.0373 80.4251 19.3409 79.9965 20.013 77.8398C20.685 75.683 22.2186 71.1727 23.584 65.449C25.0643 59.2438 26.1942 52.1933 26.1883 49.0355C26.1824 45.8777 25.0643 38.8282 23.584 32.623C22.2186 26.8992 20.685 22.389 20.013 20.2322C19.3409 18.0755 19.0374 17.6288 19.511 17.3555C19.9846 17.0822 20.2194 17.5862 21.7512 19.2466C23.283 20.907 26.4222 24.4902 30.6964 28.5345C35.3301 32.9191 40.871 37.4229 43.6087 38.9967C46.3464 40.5704 53.0105 43.1269 59.1246 44.9475C64.7642 46.6269 69.4369 47.554 71.6408 48.0503Z" stroke="white" stroke-width="1.5"/>
<path d="M53.866 19.1921C55.3978 17.5317 55.6016 17.0278 56.0752 17.3012C56.5489 17.5747 56.2453 18.0211 55.5732 20.1778C54.9012 22.3346 53.3677 26.8448 52.0022 32.5686C50.522 38.7738 49.392 45.8243 49.3979 48.9821C49.4039 52.1399 50.522 59.1894 52.0023 65.3946C53.3677 71.1183 54.9012 75.6286 55.5733 77.7854C56.2454 79.9421 56.5489 80.3885 56.0753 80.662C55.6016 80.9354 55.3823 80.4582 53.8505 78.7978C52.3187 77.1374 49.1795 73.5542 44.9053 69.5099C40.2715 65.1253 34.7306 60.6214 31.9929 59.0477C29.2552 57.4739 22.5911 54.9175 16.4771 53.0968C10.8375 51.4175 6.16476 50.4904 3.96091 49.9941C1.75705 49.4977 1.21851 49.5372 1.21859 48.9904C1.21867 48.4436 1.77256 48.4923 3.97642 47.9959C6.18027 47.4995 10.853 46.5725 16.4926 44.8931C22.6067 43.0724 29.2775 40.5258 32.0093 38.9418C34.741 37.3577 40.287 32.8647 44.9208 28.4801C49.195 24.4357 52.3342 20.8525 53.866 19.1921Z" stroke="white" stroke-width="1.5"/>
<circle cx="37.7946" cy="48.9993" r="3.94891" fill="white"/>
<circle cx="37.627" cy="48.9996" r="28.4629" stroke="white" stroke-width="1.5"/>
</svg>
